# xmcd CD database file
#
# Track frame offsets:
#	150
#	18585
#	34188
#	52532
#	69394
#
# Disc length: 1141 seconds
#
# Revision: 1
# Processed by: cddbd v1.5.2PL0 Copyright (c) Steve Scherf et al.
# Submitted via: CDex 1.70beta2
#
DISCID=34047305
DTITLE=Kajsa Vala - Coming Up For Air
DYEAR=2008
DGENRE=Country
TTITLE0=Up For Air
TTITLE1=Bruises On Your Heart
TTITLE2=Grey Steel Canyon Floor
TTITLE3=I Wanna Know
TTITLE4=Broken
EXTD=YEAR: 2008
EXTT0=
EXTT1=
EXTT2=
EXTT3=
EXTT4=
PLAYORDER=
